# File created by Blade
# Date/Time:  Thu Jan 22 19:29:39 2015
# Frame Rate: 120.000 fps
#------------------------------------------------------
:FULLY-SPECIFIED
:DEGREES
1046
root 1.874997 34.013069 0.990718 88.905398 -13.943578 -24.886394
RightUpLeg -3.468204 17.885886 -25.437208
RightLeg 150.419459 -0.000000 -0.000000
RightFoot 35.991226 5.485360 5.674272
RightToeBase -21.146636 -0.000000 0.000000
LeftUpLeg -90.021777 14.345730 9.204738
LeftLeg 27.117875 -0.000000 -0.000000
LeftFoot -23.127362 12.740424 -8.634826
LeftToeBase 6.522833 -0.000000 -0.000000
Spine -17.302041 -4.729314 -0.736144
RightShoulder -19.227908 -35.180181 -13.705642
RightArm 7.303421 -63.079718 63.150328
RightForeArm 36.709820 -0.000000 41.533582
RightHand -10.649370 0.000000 14.509596
RightHandThumb1 -24.326973 -0.000000 -32.862282
LeftShoulder -33.955618 6.660488 35.101200
LeftArm 154.904800 -43.412040 -117.917059
LeftForeArm -13.605761 -0.000000 60.335999
LeftHand -15.377737 0.000000 12.039108
LeftHandThumb1 -26.253704 0.000000 33.147579
Head -20.456767 27.523379 -11.357517
1047
root 1.885910 34.015285 0.994279 88.976169 -14.033841 -24.920677
RightUpLeg -3.388273 17.782025 -25.414945
RightLeg 150.398481 -0.000000 -0.000000
RightFoot 35.926053 5.443283 5.601030
RightToeBase -21.357055 -0.000000 0.000000
LeftUpLeg -90.032173 14.370505 9.150227
LeftLeg 27.079111 -0.000000 -0.000000
LeftFoot -23.169581 12.682464 -8.777665
LeftToeBase 6.618402 -0.000000 -0.000000
Spine -17.324141 -4.791946 -0.710278
RightShoulder -19.235107 -35.229661 -13.718088
RightArm 7.344462 -63.092326 63.104504
RightForeArm 36.644968 0.000000 41.562319
RightHand -10.616309 0.000000 14.486484
RightHandThumb1 -24.326973 -0.000000 -32.862282
LeftShoulder -33.976461 6.692784 35.068356
LeftArm 154.958494 -43.465012 -118.035278
LeftForeArm -13.592138 -0.000000 60.369196
LeftHand -15.342614 -0.000000 11.974188
LeftHandThumb1 -26.253704 0.000000 33.147579
Head -20.428946 27.641625 -11.415793
1048
root 1.897567 34.018983 0.998427 89.062704 -14.126095 -24.971430
RightUpLeg -3.329989 17.690281 -25.427091
RightLeg 150.362684 -0.000000 -0.000000
RightFoot 35.840679 5.565227 5.467290
RightToeBase -20.891336 -0.000000 0.000000
LeftUpLeg -90.041048 14.409407 9.142681
LeftLeg 27.049565 -0.000000 -0.000000
LeftFoot -23.234602 12.623419 -9.012520
LeftToeBase 6.742222 -0.000000 -0.000000
Spine -17.359254 -4.836401 -0.681532
RightShoulder -19.271157 -35.314141 -13.726071
RightArm 7.499285 -63.161973 62.951356
RightForeArm 36.722602 -0.000000 41.603824
RightHand -10.619144 -0.000000 14.492973
RightHandThumb1 -24.326973 -0.000000 -32.862282
LeftShoulder -33.994175 6.702208 35.011074
LeftArm 155.027869 -43.546227 -118.130152
LeftForeArm -13.605459 -0.000000 60.412252
LeftHand -15.347726 -0.000000 11.878273
LeftHandThumb1 -26.253704 0.000000 33.147579
Head -20.388827 27.754298 -11.479677
1049
root 1.907329 34.025723 1.002006 89.156257 -14.208228 -25.042351
RightUpLeg -3.274165 17.643736 -25.410746
RightLeg 150.321217 -0.000000 -0.000000
RightFoot 35.976224 5.572185 5.740935
RightToeBase -20.446351 -0.000000 0.000000
LeftUpLeg -90.061396 14.491149 9.150453
LeftLeg 27.062195 -0.000000 -0.000000
LeftFoot -23.300605 12.452167 -9.317634
LeftToeBase 6.820958 -0.000000 -0.000000
Spine -17.405498 -4.879963 -0.661361
RightShoulder -19.252841 -35.323862 -13.761206
RightArm 7.454858 -63.272125 62.963423
RightForeArm 36.845350 -0.000000 41.673582
RightHand -10.627870 -0.000000 14.360565
RightHandThumb1 -24.326973 -0.000000 -32.862282
LeftShoulder -33.986019 6.726840 34.997101
LeftArm 155.073202 -43.622020 -118.225747
LeftForeArm -13.560906 -0.000000 60.540886
LeftHand -15.373504 -0.000000 11.811702
LeftHandThumb1 -26.253704 0.000000 33.147579
Head -20.312994 27.865137 -11.463391
1050
root 1.915005 34.036248 1.005110 89.277459 -14.287017 -25.141335
RightUpLeg -3.259350 17.553780 -25.400248
RightLeg 150.317301 -0.000000 -0.000000
RightFoot 35.972443 5.550568 5.666805
RightToeBase -20.748878 -0.000000 0.000000
LeftUpLeg -90.124953 14.626977 9.097367
LeftLeg 27.102117 -0.000000 -0.000000
LeftFoot -23.373060 12.205102 -9.650758
LeftToeBase 7.000732 -0.000000 -0.000000
Spine -17.476855 -4.907204 -0.650688
RightShoulder -19.244116 -35.342570 -13.780625
RightArm 7.442297 -63.355234 62.950216
RightForeArm 36.859744 0.000000 41.725236
RightHand -10.664423 0.000000 14.339464
RightHandThumb1 -24.326973 -0.000000 -32.862282
LeftShoulder -33.990007 6.753780 34.978187
LeftArm 155.118391 -43.701853 -118.271049
LeftForeArm -13.668857 -0.000000 60.676060
LeftHand -15.406694 -0.000000 11.904465
LeftHandThumb1 -26.253704 0.000000 33.147579
Head -20.226948 27.981218 -11.412044
